<?xml version="1.0" encoding="utf-8"?><svg width="auto" height="4920" style="overflow:visible " version="1.1" xmlns="http://www.w3.org/2000/svg"><rect x="20" y="20" width="200" height="40" style="fill:white;stroke:black;stroke-width:1" /><text x="30" y="30" font-size="10" style="fill:blue">xs:schema</text><text x="30" y="40" font-size="8" style="fill:black">xmlns:xs: http://www.w3.org/2001/XMLSchema</text><text x="30" y="50" font-size="8" style="fill:black">targetNamespace: http://www.uniovi.es</text><text x="30" y="60" font-size="8" style="fill:black">xmlns: http://www.uniovi.es</text><text x="30" y="70" font-size="8" style="fill:black">elementFormDefault: qualified</text><rect x="240" y="20" width="200" height="40" style="fill:white;stroke:black;stroke-width:1" /><text x="250" y="30" font-size="10" style="fill:blue">xs:element</text><path d="M220 40 C240 40 220 40 240 40" style="fill:transparent;stroke:black" /><text x="250" y="40" font-size="8" style="fill:black">name: rutas</text><rect x="460" y="20" width="200" height="40" style="fill:white;stroke:black;stroke-width:1" /><text x="470" y="30" font-size="10" style="fill:blue">xs:complexType</text><path d="M440 40 C460 40 440 40 460 40" style="fill:transparent;stroke:black" /><rect x="680" y="20" width="200" height="40" style="fill:white;stroke:black;stroke-width:1" /><text x="690" y="30" font-size="10" style="fill:blue">xs:sequence</text><path d="M660 40 C680 40 660 40 680 40" style="fill:transparent;stroke:black" /><rect x="900" y="20" width="200" height="40" style="fill:white;stroke:black;stroke-width:1" /><text x="910" y="30" font-size="10" style="fill:blue">xs:element</text><path d="M880 40 C900 40 880 40 900 40" style="fill:transparent;stroke:black" /><text x="910" y="40" font-size="8" style="fill:black">minOccurs: 3</text><text x="910" y="50" font-size="8" style="fill:black">maxOccurs: unbounded</text><text x="910" y="60" font-size="8" style="fill:black">ref: ruta</text><rect x="240" y="220" width="200" height="40" style="fill:white;stroke:black;stroke-width:1" /><text x="250" y="230" font-size="10" style="fill:blue">xs:element</text><path d="M220 40 C240 40 220 240 240 240" style="fill:transparent;stroke:black" /><text x="250" y="240" font-size="8" style="fill:black">name: ruta</text><rect x="460" y="220" width="200" height="40" style="fill:white;stroke:black;stroke-width:1" /><text x="470" y="230" font-size="10" style="fill:blue">xs:complexType</text><path d="M440 240 C460 240 440 240 460 240" style="fill:transparent;stroke:black" /><rect x="680" y="220" width="200" height="40" style="fill:white;stroke:black;stroke-width:1" /><text x="690" y="230" font-size="10" style="fill:blue">xs:sequence</text><path d="M660 240 C680 240 660 240 680 240" style="fill:transparent;stroke:black" /><rect x="900" y="220" width="200" height="40" style="fill:white;stroke:black;stroke-width:1" /><text x="910" y="230" font-size="10" style="fill:blue">xs:element</text><path d="M880 240 C900 240 880 240 900 240" style="fill:transparent;stroke:black" /><text x="910" y="240" font-size="8" style="fill:black">ref: nombre</text><rect x="900" y="270" width="200" height="40" style="fill:white;stroke:black;stroke-width:1" /><text x="910" y="280" font-size="10" style="fill:blue">xs:element</text><path d="M880 240 C900 240 880 290 900 290" style="fill:transparent;stroke:black" /><text x="910" y="290" font-size="8" style="fill:black">ref: tipo</text><rect x="900" y="320" width="200" height="40" style="fill:white;stroke:black;stroke-width:1" /><text x="910" y="330" font-size="10" style="fill:blue">xs:element</text><path d="M880 240 C900 240 880 340 900 340" style="fill:transparent;stroke:black" /><text x="910" y="340" font-size="8" style="fill:black">ref: transporte</text><rect x="900" y="370" width="200" height="40" style="fill:white;stroke:black;stroke-width:1" /><text x="910" y="380" font-size="10" style="fill:blue">xs:element</text><path d="M880 240 C900 240 880 390 900 390" style="fill:transparent;stroke:black" /><text x="910" y="390" font-size="8" style="fill:black">ref: fechaInicio</text><rect x="900" y="420" width="200" height="40" style="fill:white;stroke:black;stroke-width:1" /><text x="910" y="430" font-size="10" style="fill:blue">xs:element</text><path d="M880 240 C900 240 880 440 900 440" style="fill:transparent;stroke:black" /><text x="910" y="440" font-size="8" style="fill:black">ref: horaInicio</text><rect x="900" y="470" width="200" height="40" style="fill:white;stroke:black;stroke-width:1" /><text x="910" y="480" font-size="10" style="fill:blue">xs:element</text><path d="M880 240 C900 240 880 490 900 490" style="fill:transparent;stroke:black" /><text x="910" y="490" font-size="8" style="fill:black">ref: duracion</text><rect x="900" y="520" width="200" height="40" style="fill:white;stroke:black;stroke-width:1" /><text x="910" y="530" font-size="10" style="fill:blue">xs:element</text><path d="M880 240 C900 240 880 540 900 540" style="fill:transparent;stroke:black" /><text x="910" y="540" font-size="8" style="fill:black">ref: agencia</text><rect x="900" y="570" width="200" height="40" style="fill:white;stroke:black;stroke-width:1" /><text x="910" y="580" font-size="10" style="fill:blue">xs:element</text><path d="M880 240 C900 240 880 590 900 590" style="fill:transparent;stroke:black" /><text x="910" y="590" font-size="8" style="fill:black">ref: descripcion</text><rect x="900" y="620" width="200" height="40" style="fill:white;stroke:black;stroke-width:1" /><text x="910" y="630" font-size="10" style="fill:blue">xs:element</text><path d="M880 240 C900 240 880 640 900 640" style="fill:transparent;stroke:black" /><text x="910" y="640" font-size="8" style="fill:black">ref: gruposAdecuados</text><rect x="900" y="670" width="200" height="40" style="fill:white;stroke:black;stroke-width:1" /><text x="910" y="680" font-size="10" style="fill:blue">xs:element</text><path d="M880 240 C900 240 880 690 900 690" style="fill:transparent;stroke:black" /><text x="910" y="690" font-size="8" style="fill:black">ref: direccionesRuta</text><rect x="900" y="720" width="200" height="40" style="fill:white;stroke:black;stroke-width:1" /><text x="910" y="730" font-size="10" style="fill:blue">xs:element</text><path d="M880 240 C900 240 880 740 900 740" style="fill:transparent;stroke:black" /><text x="910" y="740" font-size="8" style="fill:black">ref: bibliografia</text><rect x="900" y="770" width="200" height="40" style="fill:white;stroke:black;stroke-width:1" /><text x="910" y="780" font-size="10" style="fill:blue">xs:element</text><path d="M880 240 C900 240 880 790 900 790" style="fill:transparent;stroke:black" /><text x="910" y="790" font-size="8" style="fill:black">ref: recomendacion</text><rect x="900" y="820" width="200" height="40" style="fill:white;stroke:black;stroke-width:1" /><text x="910" y="830" font-size="10" style="fill:blue">xs:element</text><path d="M880 240 C900 240 880 840 900 840" style="fill:transparent;stroke:black" /><text x="910" y="840" font-size="8" style="fill:black">ref: hitos</text><rect x="240" y="1020" width="200" height="40" style="fill:white;stroke:black;stroke-width:1" /><text x="250" y="1030" font-size="10" style="fill:blue">xs:element</text><path d="M220 40 C240 40 220 1040 240 1040" style="fill:transparent;stroke:black" /><text x="250" y="1040" font-size="8" style="fill:black">name: nombre</text><text x="250" y="1050" font-size="8" style="fill:black">type: xs:string</text><rect x="240" y="1070" width="200" height="40" style="fill:white;stroke:black;stroke-width:1" /><text x="250" y="1080" font-size="10" style="fill:blue">xs:element</text><path d="M220 40 C240 40 220 1090 240 1090" style="fill:transparent;stroke:black" /><text x="250" y="1090" font-size="8" style="fill:black">name: tipo</text><text x="250" y="1100" font-size="8" style="fill:black">type: xs:string</text><rect x="240" y="1120" width="200" height="40" style="fill:white;stroke:black;stroke-width:1" /><text x="250" y="1130" font-size="10" style="fill:blue">xs:element</text><path d="M220 40 C240 40 220 1140 240 1140" style="fill:transparent;stroke:black" /><text x="250" y="1140" font-size="8" style="fill:black">name: transporte</text><text x="250" y="1150" font-size="8" style="fill:black">type: xs:string</text><rect x="240" y="1170" width="200" height="40" style="fill:white;stroke:black;stroke-width:1" /><text x="250" y="1180" font-size="10" style="fill:blue">xs:element</text><path d="M220 40 C240 40 220 1190 240 1190" style="fill:transparent;stroke:black" /><text x="250" y="1190" font-size="8" style="fill:black">name: fechaInicio</text><text x="250" y="1200" font-size="8" style="fill:black">type: xs:date</text><rect x="240" y="1220" width="200" height="40" style="fill:white;stroke:black;stroke-width:1" /><text x="250" y="1230" font-size="10" style="fill:blue">xs:element</text><path d="M220 40 C240 40 220 1240 240 1240" style="fill:transparent;stroke:black" /><text x="250" y="1240" font-size="8" style="fill:black">name: horaInicio</text><text x="250" y="1250" font-size="8" style="fill:black">type: xs:time</text><rect x="240" y="1270" width="200" height="40" style="fill:white;stroke:black;stroke-width:1" /><text x="250" y="1280" font-size="10" style="fill:blue">xs:element</text><path d="M220 40 C240 40 220 1290 240 1290" style="fill:transparent;stroke:black" /><text x="250" y="1290" font-size="8" style="fill:black">name: duracion</text><text x="250" y="1300" font-size="8" style="fill:black">type: xs:duration</text><rect x="240" y="1320" width="200" height="40" style="fill:white;stroke:black;stroke-width:1" /><text x="250" y="1330" font-size="10" style="fill:blue">xs:element</text><path d="M220 40 C240 40 220 1340 240 1340" style="fill:transparent;stroke:black" /><text x="250" y="1340" font-size="8" style="fill:black">name: agencia</text><text x="250" y="1350" font-size="8" style="fill:black">type: xs:string</text><rect x="240" y="1370" width="200" height="40" style="fill:white;stroke:black;stroke-width:1" /><text x="250" y="1380" font-size="10" style="fill:blue">xs:element</text><path d="M220 40 C240 40 220 1390 240 1390" style="fill:transparent;stroke:black" /><text x="250" y="1390" font-size="8" style="fill:black">name: descripcion</text><text x="250" y="1400" font-size="8" style="fill:black">type: xs:string</text><rect x="240" y="1420" width="200" height="40" style="fill:white;stroke:black;stroke-width:1" /><text x="250" y="1430" font-size="10" style="fill:blue">xs:element</text><path d="M220 40 C240 40 220 1440 240 1440" style="fill:transparent;stroke:black" /><text x="250" y="1440" font-size="8" style="fill:black">name: gruposAdecuados</text><rect x="460" y="1420" width="200" height="40" style="fill:white;stroke:black;stroke-width:1" /><text x="470" y="1430" font-size="10" style="fill:blue">xs:complexType</text><path d="M440 1440 C460 1440 440 1440 460 1440" style="fill:transparent;stroke:black" /><rect x="680" y="1420" width="200" height="40" style="fill:white;stroke:black;stroke-width:1" /><text x="690" y="1430" font-size="10" style="fill:blue">xs:sequence</text><path d="M660 1440 C680 1440 660 1440 680 1440" style="fill:transparent;stroke:black" /><rect x="900" y="1420" width="200" height="40" style="fill:white;stroke:black;stroke-width:1" /><text x="910" y="1430" font-size="10" style="fill:blue">xs:element</text><path d="M880 1440 C900 1440 880 1440 900 1440" style="fill:transparent;stroke:black" /><text x="910" y="1440" font-size="8" style="fill:black">minOccurs: 1</text><text x="910" y="1450" font-size="8" style="fill:black">maxOccurs: unbounded</text><text x="910" y="1460" font-size="8" style="fill:black">ref: grupoAdecuado</text><rect x="240" y="1620" width="200" height="40" style="fill:white;stroke:black;stroke-width:1" /><text x="250" y="1630" font-size="10" style="fill:blue">xs:element</text><path d="M220 40 C240 40 220 1640 240 1640" style="fill:transparent;stroke:black" /><text x="250" y="1640" font-size="8" style="fill:black">name: grupoAdecuado</text><text x="250" y="1650" font-size="8" style="fill:black">type: xs:string</text><rect x="240" y="1670" width="200" height="40" style="fill:white;stroke:black;stroke-width:1" /><text x="250" y="1680" font-size="10" style="fill:blue">xs:element</text><path d="M220 40 C240 40 220 1690 240 1690" style="fill:transparent;stroke:black" /><text x="250" y="1690" font-size="8" style="fill:black">name: direccionesRuta</text><rect x="460" y="1670" width="200" height="40" style="fill:white;stroke:black;stroke-width:1" /><text x="470" y="1680" font-size="10" style="fill:blue">xs:complexType</text><path d="M440 1690 C460 1690 440 1690 460 1690" style="fill:transparent;stroke:black" /><rect x="680" y="1670" width="200" height="40" style="fill:white;stroke:black;stroke-width:1" /><text x="690" y="1680" font-size="10" style="fill:blue">xs:sequence</text><path d="M660 1690 C680 1690 660 1690 680 1690" style="fill:transparent;stroke:black" /><rect x="900" y="1670" width="200" height="40" style="fill:white;stroke:black;stroke-width:1" /><text x="910" y="1680" font-size="10" style="fill:blue">xs:element</text><path d="M880 1690 C900 1690 880 1690 900 1690" style="fill:transparent;stroke:black" /><text x="910" y="1690" font-size="8" style="fill:black">ref: lugarInicio</text><rect x="900" y="1720" width="200" height="40" style="fill:white;stroke:black;stroke-width:1" /><text x="910" y="1730" font-size="10" style="fill:blue">xs:element</text><path d="M880 1690 C900 1690 880 1740 900 1740" style="fill:transparent;stroke:black" /><text x="910" y="1740" font-size="8" style="fill:black">ref: direccionInicio</text><rect x="900" y="1770" width="200" height="40" style="fill:white;stroke:black;stroke-width:1" /><text x="910" y="1780" font-size="10" style="fill:blue">xs:element</text><path d="M880 1690 C900 1690 880 1790 900 1790" style="fill:transparent;stroke:black" /><text x="910" y="1790" font-size="8" style="fill:black">ref: coordenadasInicio</text><rect x="240" y="1970" width="200" height="40" style="fill:white;stroke:black;stroke-width:1" /><text x="250" y="1980" font-size="10" style="fill:blue">xs:element</text><path d="M220 40 C240 40 220 1990 240 1990" style="fill:transparent;stroke:black" /><text x="250" y="1990" font-size="8" style="fill:black">name: lugarInicio</text><text x="250" y="2000" font-size="8" style="fill:black">type: xs:string</text><rect x="240" y="2020" width="200" height="40" style="fill:white;stroke:black;stroke-width:1" /><text x="250" y="2030" font-size="10" style="fill:blue">xs:element</text><path d="M220 40 C240 40 220 2040 240 2040" style="fill:transparent;stroke:black" /><text x="250" y="2040" font-size="8" style="fill:black">name: direccionInicio</text><text x="250" y="2050" font-size="8" style="fill:black">type: xs:string</text><rect x="240" y="2070" width="200" height="40" style="fill:white;stroke:black;stroke-width:1" /><text x="250" y="2080" font-size="10" style="fill:blue">xs:element</text><path d="M220 40 C240 40 220 2090 240 2090" style="fill:transparent;stroke:black" /><text x="250" y="2090" font-size="8" style="fill:black">name: coordenadasInicio</text><rect x="460" y="2070" width="200" height="40" style="fill:white;stroke:black;stroke-width:1" /><text x="470" y="2080" font-size="10" style="fill:blue">xs:complexType</text><path d="M440 2090 C460 2090 440 2090 460 2090" style="fill:transparent;stroke:black" /><rect x="680" y="2070" width="200" height="40" style="fill:white;stroke:black;stroke-width:1" /><text x="690" y="2080" font-size="10" style="fill:blue">xs:attribute</text><path d="M660 2090 C680 2090 660 2090 680 2090" style="fill:transparent;stroke:black" /><text x="690" y="2090" font-size="8" style="fill:black">name: longitud</text><text x="690" y="2100" font-size="8" style="fill:black">type: xs:double</text><text x="690" y="2110" font-size="8" style="fill:black">use: required</text><rect x="680" y="2120" width="200" height="40" style="fill:white;stroke:black;stroke-width:1" /><text x="690" y="2130" font-size="10" style="fill:blue">xs:attribute</text><path d="M660 2090 C680 2090 660 2140 680 2140" style="fill:transparent;stroke:black" /><text x="690" y="2140" font-size="8" style="fill:black">name: latitud</text><text x="690" y="2150" font-size="8" style="fill:black">type: xs:double</text><text x="690" y="2160" font-size="8" style="fill:black">use: required</text><rect x="680" y="2170" width="200" height="40" style="fill:white;stroke:black;stroke-width:1" /><text x="690" y="2180" font-size="10" style="fill:blue">xs:attribute</text><path d="M660 2090 C680 2090 660 2190 680 2190" style="fill:transparent;stroke:black" /><text x="690" y="2190" font-size="8" style="fill:black">name: altitud</text><text x="690" y="2200" font-size="8" style="fill:black">type: xs:double</text><text x="690" y="2210" font-size="8" style="fill:black">use: required</text><rect x="240" y="2320" width="200" height="40" style="fill:white;stroke:black;stroke-width:1" /><text x="250" y="2330" font-size="10" style="fill:blue">xs:element</text><path d="M220 40 C240 40 220 2340 240 2340" style="fill:transparent;stroke:black" /><text x="250" y="2340" font-size="8" style="fill:black">name: bibliografia</text><rect x="460" y="2320" width="200" height="40" style="fill:white;stroke:black;stroke-width:1" /><text x="470" y="2330" font-size="10" style="fill:blue">xs:complexType</text><path d="M440 2340 C460 2340 440 2340 460 2340" style="fill:transparent;stroke:black" /><rect x="680" y="2320" width="200" height="40" style="fill:white;stroke:black;stroke-width:1" /><text x="690" y="2330" font-size="10" style="fill:blue">xs:sequence</text><path d="M660 2340 C680 2340 660 2340 680 2340" style="fill:transparent;stroke:black" /><rect x="900" y="2320" width="200" height="40" style="fill:white;stroke:black;stroke-width:1" /><text x="910" y="2330" font-size="10" style="fill:blue">xs:element</text><path d="M880 2340 C900 2340 880 2340 900 2340" style="fill:transparent;stroke:black" /><text x="910" y="2340" font-size="8" style="fill:black">minOccurs: 3</text><text x="910" y="2350" font-size="8" style="fill:black">maxOccurs: unbounded</text><text x="910" y="2360" font-size="8" style="fill:black">ref: referencia</text><rect x="240" y="2520" width="200" height="40" style="fill:white;stroke:black;stroke-width:1" /><text x="250" y="2530" font-size="10" style="fill:blue">xs:element</text><path d="M220 40 C240 40 220 2540 240 2540" style="fill:transparent;stroke:black" /><text x="250" y="2540" font-size="8" style="fill:black">name: referencia</text><text x="250" y="2550" font-size="8" style="fill:black">type: xs:string</text><rect x="240" y="2570" width="200" height="40" style="fill:white;stroke:black;stroke-width:1" /><text x="250" y="2580" font-size="10" style="fill:blue">xs:element</text><path d="M220 40 C240 40 220 2590 240 2590" style="fill:transparent;stroke:black" /><text x="250" y="2590" font-size="8" style="fill:black">name: recomendacion</text><rect x="460" y="2570" width="200" height="40" style="fill:white;stroke:black;stroke-width:1" /><text x="470" y="2580" font-size="10" style="fill:blue">xs:simpleType</text><path d="M440 2590 C460 2590 440 2590 460 2590" style="fill:transparent;stroke:black" /><rect x="680" y="2570" width="200" height="40" style="fill:white;stroke:black;stroke-width:1" /><text x="690" y="2580" font-size="10" style="fill:blue">xs:restriction</text><path d="M660 2590 C680 2590 660 2590 680 2590" style="fill:transparent;stroke:black" /><text x="690" y="2590" font-size="8" style="fill:black">base: xs:integer</text><rect x="900" y="2570" width="200" height="40" style="fill:white;stroke:black;stroke-width:1" /><text x="910" y="2580" font-size="10" style="fill:blue">xs:minInclusive</text><path d="M880 2590 C900 2590 880 2590 900 2590" style="fill:transparent;stroke:black" /><text x="910" y="2590" font-size="8" style="fill:black">value: 0</text><rect x="900" y="2620" width="200" height="40" style="fill:white;stroke:black;stroke-width:1" /><text x="910" y="2630" font-size="10" style="fill:blue">xs:maxInclusive</text><path d="M880 2590 C900 2590 880 2640 900 2640" style="fill:transparent;stroke:black" /><text x="910" y="2640" font-size="8" style="fill:black">value: 10</text><rect x="240" y="2820" width="200" height="40" style="fill:white;stroke:black;stroke-width:1" /><text x="250" y="2830" font-size="10" style="fill:blue">xs:element</text><path d="M220 40 C240 40 220 2840 240 2840" style="fill:transparent;stroke:black" /><text x="250" y="2840" font-size="8" style="fill:black">name: hitos</text><rect x="460" y="2820" width="200" height="40" style="fill:white;stroke:black;stroke-width:1" /><text x="470" y="2830" font-size="10" style="fill:blue">xs:complexType</text><path d="M440 2840 C460 2840 440 2840 460 2840" style="fill:transparent;stroke:black" /><rect x="680" y="2820" width="200" height="40" style="fill:white;stroke:black;stroke-width:1" /><text x="690" y="2830" font-size="10" style="fill:blue">xs:sequence</text><path d="M660 2840 C680 2840 660 2840 680 2840" style="fill:transparent;stroke:black" /><rect x="900" y="2820" width="200" height="40" style="fill:white;stroke:black;stroke-width:1" /><text x="910" y="2830" font-size="10" style="fill:blue">xs:element</text><path d="M880 2840 C900 2840 880 2840 900 2840" style="fill:transparent;stroke:black" /><text x="910" y="2840" font-size="8" style="fill:black">minOccurs: 3</text><text x="910" y="2850" font-size="8" style="fill:black">maxOccurs: unbounded</text><text x="910" y="2860" font-size="8" style="fill:black">ref: hito</text><rect x="240" y="3020" width="200" height="40" style="fill:white;stroke:black;stroke-width:1" /><text x="250" y="3030" font-size="10" style="fill:blue">xs:element</text><path d="M220 40 C240 40 220 3040 240 3040" style="fill:transparent;stroke:black" /><text x="250" y="3040" font-size="8" style="fill:black">name: hito</text><rect x="460" y="3020" width="200" height="40" style="fill:white;stroke:black;stroke-width:1" /><text x="470" y="3030" font-size="10" style="fill:blue">xs:complexType</text><path d="M440 3040 C460 3040 440 3040 460 3040" style="fill:transparent;stroke:black" /><rect x="680" y="3020" width="200" height="40" style="fill:white;stroke:black;stroke-width:1" /><text x="690" y="3030" font-size="10" style="fill:blue">xs:sequence</text><path d="M660 3040 C680 3040 660 3040 680 3040" style="fill:transparent;stroke:black" /><rect x="900" y="3020" width="200" height="40" style="fill:white;stroke:black;stroke-width:1" /><text x="910" y="3030" font-size="10" style="fill:blue">xs:element</text><path d="M880 3040 C900 3040 880 3040 900 3040" style="fill:transparent;stroke:black" /><text x="910" y="3040" font-size="8" style="fill:black">ref: nombreHito</text><rect x="900" y="3070" width="200" height="40" style="fill:white;stroke:black;stroke-width:1" /><text x="910" y="3080" font-size="10" style="fill:blue">xs:element</text><path d="M880 3040 C900 3040 880 3090 900 3090" style="fill:transparent;stroke:black" /><text x="910" y="3090" font-size="8" style="fill:black">ref: descripcionHito</text><rect x="900" y="3120" width="200" height="40" style="fill:white;stroke:black;stroke-width:1" /><text x="910" y="3130" font-size="10" style="fill:blue">xs:element</text><path d="M880 3040 C900 3040 880 3140 900 3140" style="fill:transparent;stroke:black" /><text x="910" y="3140" font-size="8" style="fill:black">ref: coordenadasInicio</text><rect x="900" y="3170" width="200" height="40" style="fill:white;stroke:black;stroke-width:1" /><text x="910" y="3180" font-size="10" style="fill:blue">xs:element</text><path d="M880 3040 C900 3040 880 3190 900 3190" style="fill:transparent;stroke:black" /><text x="910" y="3190" font-size="8" style="fill:black">minOccurs: 0</text><text x="910" y="3200" font-size="8" style="fill:black">maxOccurs: 1</text><text x="910" y="3210" font-size="8" style="fill:black">ref: distanciaHitoAnterior</text><rect x="900" y="3220" width="200" height="40" style="fill:white;stroke:black;stroke-width:1" /><text x="910" y="3230" font-size="10" style="fill:blue">xs:element</text><path d="M880 3040 C900 3040 880 3240 900 3240" style="fill:transparent;stroke:black" /><text x="910" y="3240" font-size="8" style="fill:black">ref: fotografiasHito</text><rect x="900" y="3270" width="200" height="40" style="fill:white;stroke:black;stroke-width:1" /><text x="910" y="3280" font-size="10" style="fill:blue">xs:element</text><path d="M880 3040 C900 3040 880 3290 900 3290" style="fill:transparent;stroke:black" /><text x="910" y="3290" font-size="8" style="fill:black">minOccurs: 0</text><text x="910" y="3300" font-size="8" style="fill:black">maxOccurs: 1</text><text x="910" y="3310" font-size="8" style="fill:black">ref: videosHito</text><rect x="240" y="3470" width="200" height="40" style="fill:white;stroke:black;stroke-width:1" /><text x="250" y="3480" font-size="10" style="fill:blue">xs:element</text><path d="M220 40 C240 40 220 3490 240 3490" style="fill:transparent;stroke:black" /><text x="250" y="3490" font-size="8" style="fill:black">name: nombreHito</text><text x="250" y="3500" font-size="8" style="fill:black">type: xs:string</text><rect x="240" y="3520" width="200" height="40" style="fill:white;stroke:black;stroke-width:1" /><text x="250" y="3530" font-size="10" style="fill:blue">xs:element</text><path d="M220 40 C240 40 220 3540 240 3540" style="fill:transparent;stroke:black" /><text x="250" y="3540" font-size="8" style="fill:black">name: descripcionHito</text><text x="250" y="3550" font-size="8" style="fill:black">type: xs:string</text><rect x="240" y="3570" width="200" height="40" style="fill:white;stroke:black;stroke-width:1" /><text x="250" y="3580" font-size="10" style="fill:blue">xs:element</text><path d="M220 40 C240 40 220 3590 240 3590" style="fill:transparent;stroke:black" /><text x="250" y="3590" font-size="8" style="fill:black">name: distanciaHitoAnterior</text><rect x="460" y="3570" width="200" height="40" style="fill:white;stroke:black;stroke-width:1" /><text x="470" y="3580" font-size="10" style="fill:blue">xs:complexType</text><path d="M440 3590 C460 3590 440 3590 460 3590" style="fill:transparent;stroke:black" /><rect x="680" y="3570" width="200" height="40" style="fill:white;stroke:black;stroke-width:1" /><text x="690" y="3580" font-size="10" style="fill:blue">xs:simpleContent</text><path d="M660 3590 C680 3590 660 3590 680 3590" style="fill:transparent;stroke:black" /><rect x="900" y="3570" width="200" height="40" style="fill:white;stroke:black;stroke-width:1" /><text x="910" y="3580" font-size="10" style="fill:blue">xs:extension</text><path d="M880 3590 C900 3590 880 3590 900 3590" style="fill:transparent;stroke:black" /><text x="910" y="3590" font-size="8" style="fill:black">base: xs:double</text><rect x="1120" y="3570" width="200" height="40" style="fill:white;stroke:black;stroke-width:1" /><text x="1130" y="3580" font-size="10" style="fill:blue">xs:attribute</text><path d="M1100 3590 C1120 3590 1100 3590 1120 3590" style="fill:transparent;stroke:black" /><text x="1130" y="3590" font-size="8" style="fill:black">name: unidad</text><text x="1130" y="3600" font-size="8" style="fill:black">type: xs:string</text><text x="1130" y="3610" font-size="8" style="fill:black">use: required</text><rect x="240" y="3820" width="200" height="40" style="fill:white;stroke:black;stroke-width:1" /><text x="250" y="3830" font-size="10" style="fill:blue">xs:element</text><path d="M220 40 C240 40 220 3840 240 3840" style="fill:transparent;stroke:black" /><text x="250" y="3840" font-size="8" style="fill:black">name: fotografiasHito</text><rect x="460" y="3820" width="200" height="40" style="fill:white;stroke:black;stroke-width:1" /><text x="470" y="3830" font-size="10" style="fill:blue">xs:complexType</text><path d="M440 3840 C460 3840 440 3840 460 3840" style="fill:transparent;stroke:black" /><rect x="680" y="3820" width="200" height="40" style="fill:white;stroke:black;stroke-width:1" /><text x="690" y="3830" font-size="10" style="fill:blue">xs:sequence</text><path d="M660 3840 C680 3840 660 3840 680 3840" style="fill:transparent;stroke:black" /><rect x="900" y="3820" width="200" height="40" style="fill:white;stroke:black;stroke-width:1" /><text x="910" y="3830" font-size="10" style="fill:blue">xs:element</text><path d="M880 3840 C900 3840 880 3840 900 3840" style="fill:transparent;stroke:black" /><text x="910" y="3840" font-size="8" style="fill:black">minOccurs: 1</text><text x="910" y="3850" font-size="8" style="fill:black">maxOccurs: 5</text><text x="910" y="3860" font-size="8" style="fill:black">ref: foto</text><rect x="240" y="4020" width="200" height="40" style="fill:white;stroke:black;stroke-width:1" /><text x="250" y="4030" font-size="10" style="fill:blue">xs:element</text><path d="M220 40 C240 40 220 4040 240 4040" style="fill:transparent;stroke:black" /><text x="250" y="4040" font-size="8" style="fill:black">name: foto</text><rect x="460" y="4020" width="200" height="40" style="fill:white;stroke:black;stroke-width:1" /><text x="470" y="4030" font-size="10" style="fill:blue">xs:complexType</text><path d="M440 4040 C460 4040 440 4040 460 4040" style="fill:transparent;stroke:black" /><rect x="680" y="4020" width="200" height="40" style="fill:white;stroke:black;stroke-width:1" /><text x="690" y="4030" font-size="10" style="fill:blue">xs:simpleContent</text><path d="M660 4040 C680 4040 660 4040 680 4040" style="fill:transparent;stroke:black" /><rect x="900" y="4020" width="200" height="40" style="fill:white;stroke:black;stroke-width:1" /><text x="910" y="4030" font-size="10" style="fill:blue">xs:extension</text><path d="M880 4040 C900 4040 880 4040 900 4040" style="fill:transparent;stroke:black" /><text x="910" y="4040" font-size="8" style="fill:black">base: xs:string</text><rect x="1120" y="4020" width="200" height="40" style="fill:white;stroke:black;stroke-width:1" /><text x="1130" y="4030" font-size="10" style="fill:blue">xs:attribute</text><path d="M1100 4040 C1120 4040 1100 4040 1120 4040" style="fill:transparent;stroke:black" /><text x="1130" y="4040" font-size="8" style="fill:black">name: src</text><text x="1130" y="4050" font-size="8" style="fill:black">type: xs:string</text><text x="1130" y="4060" font-size="8" style="fill:black">use: required</text><rect x="1120" y="4070" width="200" height="40" style="fill:white;stroke:black;stroke-width:1" /><text x="1130" y="4080" font-size="10" style="fill:blue">xs:attribute</text><path d="M1100 4040 C1120 4040 1100 4090 1120 4090" style="fill:transparent;stroke:black" /><text x="1130" y="4090" font-size="8" style="fill:black">name: alt</text><text x="1130" y="4100" font-size="8" style="fill:black">type: xs:string</text><text x="1130" y="4110" font-size="8" style="fill:black">use: required</text><rect x="1120" y="4120" width="200" height="40" style="fill:white;stroke:black;stroke-width:1" /><text x="1130" y="4130" font-size="10" style="fill:blue">xs:attribute</text><path d="M1100 4040 C1120 4040 1100 4140 1120 4140" style="fill:transparent;stroke:black" /><text x="1130" y="4140" font-size="8" style="fill:black">name: title</text><text x="1130" y="4150" font-size="8" style="fill:black">type: xs:string</text><text x="1130" y="4160" font-size="8" style="fill:black">use: required</text><rect x="240" y="4370" width="200" height="40" style="fill:white;stroke:black;stroke-width:1" /><text x="250" y="4380" font-size="10" style="fill:blue">xs:element</text><path d="M220 40 C240 40 220 4390 240 4390" style="fill:transparent;stroke:black" /><text x="250" y="4390" font-size="8" style="fill:black">name: videosHito</text><rect x="460" y="4370" width="200" height="40" style="fill:white;stroke:black;stroke-width:1" /><text x="470" y="4380" font-size="10" style="fill:blue">xs:complexType</text><path d="M440 4390 C460 4390 440 4390 460 4390" style="fill:transparent;stroke:black" /><rect x="680" y="4370" width="200" height="40" style="fill:white;stroke:black;stroke-width:1" /><text x="690" y="4380" font-size="10" style="fill:blue">xs:sequence</text><path d="M660 4390 C680 4390 660 4390 680 4390" style="fill:transparent;stroke:black" /><rect x="900" y="4370" width="200" height="40" style="fill:white;stroke:black;stroke-width:1" /><text x="910" y="4380" font-size="10" style="fill:blue">xs:element</text><path d="M880 4390 C900 4390 880 4390 900 4390" style="fill:transparent;stroke:black" /><text x="910" y="4390" font-size="8" style="fill:black">minOccurs: 0</text><text x="910" y="4400" font-size="8" style="fill:black">maxOccurs: 3</text><text x="910" y="4410" font-size="8" style="fill:black">ref: video</text><rect x="240" y="4570" width="200" height="40" style="fill:white;stroke:black;stroke-width:1" /><text x="250" y="4580" font-size="10" style="fill:blue">xs:element</text><path d="M220 40 C240 40 220 4590 240 4590" style="fill:transparent;stroke:black" /><text x="250" y="4590" font-size="8" style="fill:black">name: video</text><rect x="460" y="4570" width="200" height="40" style="fill:white;stroke:black;stroke-width:1" /><text x="470" y="4580" font-size="10" style="fill:blue">xs:complexType</text><path d="M440 4590 C460 4590 440 4590 460 4590" style="fill:transparent;stroke:black" /><rect x="680" y="4570" width="200" height="40" style="fill:white;stroke:black;stroke-width:1" /><text x="690" y="4580" font-size="10" style="fill:blue">xs:simpleContent</text><path d="M660 4590 C680 4590 660 4590 680 4590" style="fill:transparent;stroke:black" /><rect x="900" y="4570" width="200" height="40" style="fill:white;stroke:black;stroke-width:1" /><text x="910" y="4580" font-size="10" style="fill:blue">xs:extension</text><path d="M880 4590 C900 4590 880 4590 900 4590" style="fill:transparent;stroke:black" /><text x="910" y="4590" font-size="8" style="fill:black">base: xs:string</text><rect x="1120" y="4570" width="200" height="40" style="fill:white;stroke:black;stroke-width:1" /><text x="1130" y="4580" font-size="10" style="fill:blue">xs:attribute</text><path d="M1100 4590 C1120 4590 1100 4590 1120 4590" style="fill:transparent;stroke:black" /><text x="1130" y="4590" font-size="8" style="fill:black">name: src</text><text x="1130" y="4600" font-size="8" style="fill:black">type: xs:string</text><text x="1130" y="4610" font-size="8" style="fill:black">use: required</text><rect x="1120" y="4620" width="200" height="40" style="fill:white;stroke:black;stroke-width:1" /><text x="1130" y="4630" font-size="10" style="fill:blue">xs:attribute</text><path d="M1100 4590 C1120 4590 1100 4640 1120 4640" style="fill:transparent;stroke:black" /><text x="1130" y="4640" font-size="8" style="fill:black">name: title</text><text x="1130" y="4650" font-size="8" style="fill:black">type: xs:string</text><text x="1130" y="4660" font-size="8" style="fill:black">use: required</text></svg>